<svg xmlns="http://www.w3.org/2000/svg" viewBox="0 0 24 28"><defs><style>.b5845f76-7276-4a14-8cf0-1ade735b2ecf{fill:#fff;}</style></defs><g id="ab9ff27b-b50e-400c-b4f9-9757957ef6fb" data-name="圖層 2"><g id="fa14bb2e-131b-4a05-a331-3df3adc256a9" data-name="圖層 1"><g id="f4e378ef-99db-44fb-b2d3-e8e8d0ce0d75" data-name="about"><path class="b5845f76-7276-4a14-8cf0-1ade735b2ecf" d="M12,14A7,7,0,1,0,5,7,7,7,0,0,0,12,14ZM12,2A5,5,0,1,1,7,7,5,5,0,0,1,12,2Z"/><path class="b5845f76-7276-4a14-8cf0-1ade735b2ecf" d="M13,16H11A11,11,0,0,0,0,27a1,1,0,0,0,1,1H23a1,1,0,0,0,1-1A11,11,0,0,0,13,16ZM2.06,26A9,9,0,0,1,11,18h2a9,9,0,0,1,8.94,8Z"/></g></g></g></svg>