<svg xmlns="http://www.w3.org/2000/svg" viewBox="0 0 58.62 87.53"><defs><style>.f5ae0886-aadb-4eca-b191-5076a4db74db{fill:#fff;}</style></defs><g id="f3b09f52-8a06-4adf-897e-45f016e2eee1" data-name="圖層 2"><g id="b589f706-f0f8-4c73-8bdf-ff0b1a9f0de1" data-name="Layer 1"><path class="f5ae0886-aadb-4eca-b191-5076a4db74db" d="M47.94,6.67A29.31,29.31,0,0,0,9.63,51a17.59,17.59,0,0,1,5.56,12,2,2,0,0,0,.05.26v15a1.5,1.5,0,0,0,1.5,1.5h1.49c.61,4.36,3.81,7.69,7.67,7.69h6.81c3.86,0,7.07-3.33,7.67-7.69h1.5a1.5,1.5,0,0,0,1.5-1.5V63.06h0a16.47,16.47,0,0,1,5.71-12.13A29.3,29.3,0,0,0,47.94,6.67ZM24,35.14H21.7a2.31,2.31,0,1,1,2.3-2.3Zm10.61-2.3a2.31,2.31,0,1,1,2.31,2.3h-2.3Zm-.9,31.6h6.67v12.4H18.24V64.44H32.6m-5.6-3V38.14h4.62l0,23.3Zm5.71,23.09H25.9c-2.23,0-4.11-2-4.63-4.69H37.35C36.83,82.53,35,84.53,32.71,84.53ZM47.06,48.7a19.7,19.7,0,0,0-6.59,12.74H34.65l0-23.3h2.3a5.31,5.31,0,1,0-5.31-5.3v2.3H27v-2.3a5.31,5.31,0,1,0-5.3,5.3H24v23.3H18a20.35,20.35,0,0,0-6.39-12.66,26.31,26.31,0,1,1,35.42-.08Z"/></g></g></svg>