<svg xmlns="http://www.w3.org/2000/svg" viewBox="0 0 28 29"><defs><style>.a1be3edc-df00-41e2-93e4-240513097f0c{fill:#fff;}</style></defs><g id="f671f93c-f285-41bc-bad0-ebb13d4b6710" data-name="圖層 2"><g id="a6728f00-8e1f-4c0f-8d2f-b739c8d259e1" data-name="icon"><path class="a1be3edc-df00-41e2-93e4-240513097f0c" d="M6,8a4,4,0,1,1,4-4A4,4,0,0,1,6,8ZM6,2A2,2,0,1,0,8,4,2,2,0,0,0,6,2Z"/><path class="a1be3edc-df00-41e2-93e4-240513097f0c" d="M22,8a4,4,0,1,1,4-4A4,4,0,0,1,22,8Zm0-6a2,2,0,1,0,2,2A2,2,0,0,0,22,2Z"/><path class="a1be3edc-df00-41e2-93e4-240513097f0c" d="M24,29H20a2,2,0,0,1-2-2V20h2v7h4V18h2V12a1,1,0,0,0-1-1H18.58L14,19,9.42,11H3a1,1,0,0,0-1,1v6H4v9H8V20h2v7a2,2,0,0,1-2,2H4a2,2,0,0,1-2-2V20a2,2,0,0,1-2-2V12A3,3,0,0,1,3,9h7.58L14,15l3.42-6H25a3,3,0,0,1,3,3v6a2,2,0,0,1-2,2v7A2,2,0,0,1,24,29Z"/></g></g></svg>